<svg width="50" height="50" viewBox="0 0 50 50" fill="none" xmlns="http://www.w3.org/2000/svg">
<path d="M40.7233 34.8453C40.7233 18.9235 25.5784 0 25.5784 0C25.5784 0 10.4165 17.8251 10.4165 34.8453C10.4165 43.215 17.2015 50 25.5712 50C33.9409 50 40.7258 43.215 40.7258 34.8453" fill="#E1393A"/>
<path d="M22.3196 41.257C21.9961 41.2569 21.6859 41.1283 21.4572 40.8996L17.3883 36.8306C16.9203 36.3461 16.9338 35.574 17.4182 35.106C17.8909 34.6494 18.6403 34.6494 19.1129 35.106L22.3195 38.3119L32.0276 28.6013C32.5122 28.1333 33.2843 28.1467 33.7523 28.6312C34.2089 29.1039 34.2089 29.8533 33.7523 30.326L23.1819 40.8997C22.9533 41.1284 22.6431 41.257 22.3196 41.257Z" fill="white"/>
</svg>
